cover 
http://img185.imageshack.us/img185/3372/torrentcover.jpg

 
http://www.imdb.com/title/tt0250687/

Donald P. Sinclair has placed six separate gold coins in different slot machines in his casino. The lucky six who find these coins discover an opportunity of a lifetime. The chance to own $2 million. Locked up in a locker in New Mexico, these six contestants must now race each other, to be the first to the cash. There are no rules in place and everything that could possibly happen, does. Whilst, behind the scenes, Sinclair's associates are placing their bets.


Rowan Atkinson - (Mr. Pollini)
John Cleese - (Donald Sinclair)
Whoopi Goldberg - (Vera Baker)
Cuba Gooding, Jr. - (Owen Templeton)
Seth Green - (Duane Cody)

screens 
http://img808.imageshack.us/img808/2175/97036117.png 
http://img109.imageshack.us/img109/4121/30138270.png 
http://img59.imageshack.us/img59/3462/24152029.png 
http://img529.imageshack.us/img529/4431/98727414.png 
http://img9.imageshack.us/img9/7296/20050272.png 
http://img819.imageshack.us/img819/6144/56873181.png

General
Complete name : the rat race.avi
Format : AVI
Format/Info : Audio Video Interleave
File size : 700 MiB
Duration : 1h 47mn
Overall bit rate : 910 Kbps
Writing application : VirtualDubMod 1.5.4.1 (build 2178/release)
Writing library : VirtualDubMod build 2178/release

Video
ID : 0
Format : MPEG-4 Visual
Format profile : Advanced Simple@L5
Format settings, BVOP : Yes
Format settings, QPel : No
Format settings, GMC : No warppoints
Format settings, Matrix : Default (H.263)
Muxing mode : Packed bitstream
Codec ID : XVID
Codec ID/Hint : XviD
Duration : 1h 47mn
Bit rate : 785 Kbps
Width : 608 pixels
Height : 256 pixels
Display aspect ratio : 2.35:1
Frame rate : 25.000 fps
Color space : YUV
Chroma subsampling : 4:2:0
Bit depth : 8 bits
Scan type : Progressive
Bits/(Pixel*Frame) : 0.202
Stream size : 604 MiB (86%)
Writing library : XviD 1.2.1 (UTC 2008-12-04)

Audio
ID : 1
Format : MPEG Audio
Format version : Version 1
Format profile : Layer 3
Mode : Joint stereo
Mode extension : MS Stereo
Codec ID : 55
Codec ID/Hint : MP3
Duration : 1h 47mn
Bit rate mode : Variable
Bit rate : 112 Kbps
Nominal bit rate : 128 Kbps
Channel(s) : 2 channels
Sampling rate : 48.0 KHz
Stream size : 86.5 MiB (12%)
Alignment : Aligned on interleaves
Interleave, duration : 24 ms (0.60 video frame)
Interleave, preload duration : 163 ms
Writing library : LAME3.98r
Encoding settings : -m j -V 4 -q 2 -lowpass 17 --abr 128
Language : English